<mxfile host="app.diagrams.net" modified="2024-06-22T23:45:58.742Z" agent="Mozilla/5.0 (Windows NT 10.0; Win64; x64) AppleWebKit/537.36 (KHTML, like Gecko) Chrome/126.0.0.0 Safari/537.36" etag="Qk5Ec8Zzyj8lnaEjc_o5" version="24.6.2" type="github">
  <diagram name="PÃ¡gina-1" id="snt_6slQWkUJ_SeUTCDy">
    <mxGraphModel dx="819" dy="441" grid="1" gridSize="10" guides="1" tooltips="1" connect="1" arrows="1" fold="1" page="1" pageScale="1" pageWidth="827" pageHeight="1169" math="0" shadow="0">
      <root>
        <mxCell id="0" />
        <mxCell id="1" parent="0" />
        <mxCell id="KOg-pLwdYSGmGfI16oDE-131" value="&lt;pre&gt;start_date_transfer&lt;/pre&gt;" style="text;html=1;align=left;verticalAlign=middle;resizable=0;points=[];autosize=1;strokeColor=none;fillColor=none;" vertex="1" parent="1">
          <mxGeometry x="450" y="465" width="150" height="50" as="geometry" />
        </mxCell>
        <mxCell id="KOg-pLwdYSGmGfI16oDE-132" value="&lt;pre&gt;total_transfer&lt;/pre&gt;" style="text;html=1;align=left;verticalAlign=middle;resizable=0;points=[];autosize=1;strokeColor=none;fillColor=none;" vertex="1" parent="1">
          <mxGeometry x="620" y="430" width="120" height="50" as="geometry" />
        </mxCell>
        <mxCell id="KOg-pLwdYSGmGfI16oDE-128" value="&lt;pre&gt;status&lt;/pre&gt;" style="text;html=1;align=left;verticalAlign=middle;resizable=0;points=[];autosize=1;strokeColor=none;fillColor=none;" vertex="1" parent="1">
          <mxGeometry x="300" y="470" width="60" height="50" as="geometry" />
        </mxCell>
        <mxCell id="KOg-pLwdYSGmGfI16oDE-96" value="Has" style="shape=rhombus;perimeter=rhombusPerimeter;whiteSpace=wrap;html=1;align=center;" vertex="1" parent="1">
          <mxGeometry x="720" y="325" width="120" height="60" as="geometry" />
        </mxCell>
        <mxCell id="KOg-pLwdYSGmGfI16oDE-7" value="" style="edgeStyle=orthogonalEdgeStyle;rounded=0;orthogonalLoop=1;jettySize=auto;html=1;entryX=0;entryY=1;entryDx=0;entryDy=0;" edge="1" parent="1" source="KOg-pLwdYSGmGfI16oDE-1" target="KOg-pLwdYSGmGfI16oDE-3">
          <mxGeometry relative="1" as="geometry" />
        </mxCell>
        <mxCell id="KOg-pLwdYSGmGfI16oDE-161" value="(1,n)" style="edgeLabel;html=1;align=center;verticalAlign=middle;resizable=0;points=[];" vertex="1" connectable="0" parent="KOg-pLwdYSGmGfI16oDE-7">
          <mxGeometry x="0.3088" relative="1" as="geometry">
            <mxPoint as="offset" />
          </mxGeometry>
        </mxCell>
        <mxCell id="KOg-pLwdYSGmGfI16oDE-1" value="Creates" style="shape=rhombus;perimeter=rhombusPerimeter;whiteSpace=wrap;html=1;align=center;" vertex="1" parent="1">
          <mxGeometry x="256" y="175" width="120" height="60" as="geometry" />
        </mxCell>
        <mxCell id="KOg-pLwdYSGmGfI16oDE-6" value="" style="edgeStyle=orthogonalEdgeStyle;rounded=0;orthogonalLoop=1;jettySize=auto;html=1;" edge="1" parent="1" source="KOg-pLwdYSGmGfI16oDE-2" target="KOg-pLwdYSGmGfI16oDE-1">
          <mxGeometry relative="1" as="geometry" />
        </mxCell>
        <mxCell id="KOg-pLwdYSGmGfI16oDE-2" value="Users" style="whiteSpace=wrap;html=1;align=center;" vertex="1" parent="1">
          <mxGeometry x="130" y="330" width="100" height="40" as="geometry" />
        </mxCell>
        <mxCell id="KOg-pLwdYSGmGfI16oDE-105" value="" style="edgeStyle=orthogonalEdgeStyle;rounded=0;orthogonalLoop=1;jettySize=auto;html=1;" edge="1" parent="1" source="KOg-pLwdYSGmGfI16oDE-3" target="KOg-pLwdYSGmGfI16oDE-96">
          <mxGeometry relative="1" as="geometry" />
        </mxCell>
        <mxCell id="KOg-pLwdYSGmGfI16oDE-167" value="(1,n)" style="edgeLabel;html=1;align=center;verticalAlign=middle;resizable=0;points=[];" vertex="1" connectable="0" parent="KOg-pLwdYSGmGfI16oDE-105">
          <mxGeometry x="0.5866" y="1" relative="1" as="geometry">
            <mxPoint as="offset" />
          </mxGeometry>
        </mxCell>
        <mxCell id="KOg-pLwdYSGmGfI16oDE-3" value="Accounts" style="whiteSpace=wrap;html=1;align=center;" vertex="1" parent="1">
          <mxGeometry x="500" y="185" width="100" height="40" as="geometry" />
        </mxCell>
        <mxCell id="KOg-pLwdYSGmGfI16oDE-14" value="Personal_Accounts" style="ellipse;whiteSpace=wrap;html=1;align=center;" vertex="1" parent="1">
          <mxGeometry x="690" y="585" width="120" height="50" as="geometry" />
        </mxCell>
        <mxCell id="KOg-pLwdYSGmGfI16oDE-15" value="Business_Accounts" style="ellipse;whiteSpace=wrap;html=1;align=center;" vertex="1" parent="1">
          <mxGeometry x="960" y="390" width="120" height="50" as="geometry" />
        </mxCell>
        <mxCell id="KOg-pLwdYSGmGfI16oDE-16" value="Bank_Accounts" style="ellipse;whiteSpace=wrap;html=1;align=center;" vertex="1" parent="1">
          <mxGeometry x="820" y="100" width="120" height="50" as="geometry" />
        </mxCell>
        <mxCell id="KOg-pLwdYSGmGfI16oDE-17" value="" style="endArrow=classic;html=1;rounded=0;entryX=0;entryY=1;entryDx=0;entryDy=0;exitX=1;exitY=0;exitDx=0;exitDy=0;" edge="1" parent="1" source="KOg-pLwdYSGmGfI16oDE-96" target="KOg-pLwdYSGmGfI16oDE-16">
          <mxGeometry width="50" height="50" relative="1" as="geometry">
            <mxPoint x="660" y="330" as="sourcePoint" />
            <mxPoint x="766.0494501852713" y="265.6128338160852" as="targetPoint" />
          </mxGeometry>
        </mxCell>
        <mxCell id="KOg-pLwdYSGmGfI16oDE-19" value="" style="endArrow=classic;html=1;rounded=0;exitX=1;exitY=0.5;exitDx=0;exitDy=0;entryX=0;entryY=0;entryDx=0;entryDy=0;" edge="1" parent="1" source="KOg-pLwdYSGmGfI16oDE-96" target="KOg-pLwdYSGmGfI16oDE-15">
          <mxGeometry width="50" height="50" relative="1" as="geometry">
            <mxPoint x="630" y="370" as="sourcePoint" />
            <mxPoint x="580" y="420" as="targetPoint" />
          </mxGeometry>
        </mxCell>
        <mxCell id="KOg-pLwdYSGmGfI16oDE-166" value="&amp;lt;(" style="edgeLabel;html=1;align=center;verticalAlign=middle;resizable=0;points=[];" vertex="1" connectable="0" parent="KOg-pLwdYSGmGfI16oDE-19">
          <mxGeometry x="-0.2876" y="-2" relative="1" as="geometry">
            <mxPoint y="-1" as="offset" />
          </mxGeometry>
        </mxCell>
        <mxCell id="KOg-pLwdYSGmGfI16oDE-168" value="(1,1)" style="edgeLabel;html=1;align=center;verticalAlign=middle;resizable=0;points=[];" vertex="1" connectable="0" parent="KOg-pLwdYSGmGfI16oDE-19">
          <mxGeometry x="-0.1893" y="-1" relative="1" as="geometry">
            <mxPoint as="offset" />
          </mxGeometry>
        </mxCell>
        <mxCell id="KOg-pLwdYSGmGfI16oDE-43" value="" style="group" vertex="1" connectable="0" parent="1">
          <mxGeometry x="920" y="500" width="107" height="110" as="geometry" />
        </mxCell>
        <mxCell id="KOg-pLwdYSGmGfI16oDE-28" value="&lt;pre&gt;description&lt;/pre&gt;" style="text;html=1;align=center;verticalAlign=middle;resizable=0;points=[];autosize=1;strokeColor=none;fillColor=none;" vertex="1" parent="KOg-pLwdYSGmGfI16oDE-43">
          <mxGeometry x="27" y="110" width="100" height="50" as="geometry" />
        </mxCell>
        <mxCell id="KOg-pLwdYSGmGfI16oDE-34" value="" style="group" vertex="1" connectable="0" parent="KOg-pLwdYSGmGfI16oDE-43">
          <mxGeometry x="20" y="70" width="90" height="70" as="geometry" />
        </mxCell>
        <mxCell id="KOg-pLwdYSGmGfI16oDE-33" value="&lt;pre&gt;balance&lt;/pre&gt;" style="text;html=1;align=left;verticalAlign=middle;resizable=0;points=[];autosize=1;strokeColor=none;fillColor=none;" vertex="1" parent="KOg-pLwdYSGmGfI16oDE-34">
          <mxGeometry x="20" y="20" width="70" height="50" as="geometry" />
        </mxCell>
        <mxCell id="KOg-pLwdYSGmGfI16oDE-24" value="&lt;pre&gt;username&lt;/pre&gt;" style="text;html=1;align=center;verticalAlign=middle;resizable=0;points=[];autosize=1;strokeColor=none;fillColor=none;" vertex="1" parent="KOg-pLwdYSGmGfI16oDE-34">
          <mxGeometry x="7" width="80" height="50" as="geometry" />
        </mxCell>
        <mxCell id="KOg-pLwdYSGmGfI16oDE-21" value="" style="verticalLabelPosition=bottom;verticalAlign=top;html=1;shape=mxgraph.flowchart.on-page_reference;fillColor=#3277D2;strokeColor=#5995e3;" vertex="1" parent="KOg-pLwdYSGmGfI16oDE-34">
          <mxGeometry width="10" height="10" as="geometry" />
        </mxCell>
        <mxCell id="KOg-pLwdYSGmGfI16oDE-23" value="" style="verticalLabelPosition=bottom;verticalAlign=top;html=1;shape=mxgraph.flowchart.on-page_reference;fillColor=#000000;strokeColor=#000000;" vertex="1" parent="KOg-pLwdYSGmGfI16oDE-34">
          <mxGeometry y="20" width="10" height="10" as="geometry" />
        </mxCell>
        <mxCell id="KOg-pLwdYSGmGfI16oDE-27" value="" style="verticalLabelPosition=bottom;verticalAlign=top;html=1;shape=mxgraph.flowchart.on-page_reference;fillColor=#000000;strokeColor=#000000;" vertex="1" parent="KOg-pLwdYSGmGfI16oDE-34">
          <mxGeometry y="60" width="10" height="10" as="geometry" />
        </mxCell>
        <mxCell id="KOg-pLwdYSGmGfI16oDE-32" value="" style="verticalLabelPosition=bottom;verticalAlign=top;html=1;shape=mxgraph.flowchart.on-page_reference;fillColor=#000000;strokeColor=#000000;" vertex="1" parent="KOg-pLwdYSGmGfI16oDE-34">
          <mxGeometry y="40" width="10" height="10" as="geometry" />
        </mxCell>
        <mxCell id="KOg-pLwdYSGmGfI16oDE-22" value="&lt;pre&gt;id&lt;/pre&gt;" style="text;html=1;align=left;verticalAlign=middle;resizable=0;points=[];autosize=1;strokeColor=none;fillColor=none;" vertex="1" parent="KOg-pLwdYSGmGfI16oDE-34">
          <mxGeometry x="20" y="-20" width="40" height="50" as="geometry" />
        </mxCell>
        <mxCell id="KOg-pLwdYSGmGfI16oDE-65" value="" style="group" vertex="1" connectable="0" parent="1">
          <mxGeometry x="1176" y="380" width="130" height="130" as="geometry" />
        </mxCell>
        <mxCell id="KOg-pLwdYSGmGfI16oDE-64" value="&lt;pre&gt;tax_id&lt;/pre&gt;" style="text;html=1;align=left;verticalAlign=middle;resizable=0;points=[];autosize=1;strokeColor=none;fillColor=none;container=0;" vertex="1" parent="KOg-pLwdYSGmGfI16oDE-65">
          <mxGeometry x="20" y="80" width="60" height="50" as="geometry" />
        </mxCell>
        <mxCell id="KOg-pLwdYSGmGfI16oDE-46" value="&lt;pre&gt;description&lt;/pre&gt;" style="text;html=1;align=center;verticalAlign=middle;resizable=0;points=[];autosize=1;strokeColor=none;fillColor=none;" vertex="1" parent="KOg-pLwdYSGmGfI16oDE-65">
          <mxGeometry x="7" y="40" width="100" height="50" as="geometry" />
        </mxCell>
        <mxCell id="KOg-pLwdYSGmGfI16oDE-47" value="" style="group" vertex="1" connectable="0" parent="KOg-pLwdYSGmGfI16oDE-65">
          <mxGeometry width="90" height="70" as="geometry" />
        </mxCell>
        <mxCell id="KOg-pLwdYSGmGfI16oDE-48" value="&lt;pre&gt;balance&lt;/pre&gt;" style="text;html=1;align=left;verticalAlign=middle;resizable=0;points=[];autosize=1;strokeColor=none;fillColor=none;" vertex="1" parent="KOg-pLwdYSGmGfI16oDE-47">
          <mxGeometry x="20" y="20" width="70" height="50" as="geometry" />
        </mxCell>
        <mxCell id="KOg-pLwdYSGmGfI16oDE-49" value="&lt;pre&gt;username&lt;/pre&gt;" style="text;html=1;align=center;verticalAlign=middle;resizable=0;points=[];autosize=1;strokeColor=none;fillColor=none;" vertex="1" parent="KOg-pLwdYSGmGfI16oDE-47">
          <mxGeometry x="7" width="80" height="50" as="geometry" />
        </mxCell>
        <mxCell id="KOg-pLwdYSGmGfI16oDE-50" value="" style="verticalLabelPosition=bottom;verticalAlign=top;html=1;shape=mxgraph.flowchart.on-page_reference;fillColor=#3277D2;strokeColor=#5995e3;" vertex="1" parent="KOg-pLwdYSGmGfI16oDE-47">
          <mxGeometry width="10" height="10" as="geometry" />
        </mxCell>
        <mxCell id="KOg-pLwdYSGmGfI16oDE-51" value="" style="verticalLabelPosition=bottom;verticalAlign=top;html=1;shape=mxgraph.flowchart.on-page_reference;fillColor=#000000;strokeColor=#000000;" vertex="1" parent="KOg-pLwdYSGmGfI16oDE-47">
          <mxGeometry y="20" width="10" height="10" as="geometry" />
        </mxCell>
        <mxCell id="KOg-pLwdYSGmGfI16oDE-52" value="" style="verticalLabelPosition=bottom;verticalAlign=top;html=1;shape=mxgraph.flowchart.on-page_reference;fillColor=#000000;strokeColor=#000000;" vertex="1" parent="KOg-pLwdYSGmGfI16oDE-47">
          <mxGeometry y="60" width="10" height="10" as="geometry" />
        </mxCell>
        <mxCell id="KOg-pLwdYSGmGfI16oDE-53" value="" style="verticalLabelPosition=bottom;verticalAlign=top;html=1;shape=mxgraph.flowchart.on-page_reference;fillColor=#000000;strokeColor=#000000;" vertex="1" parent="KOg-pLwdYSGmGfI16oDE-47">
          <mxGeometry y="40" width="10" height="10" as="geometry" />
        </mxCell>
        <mxCell id="KOg-pLwdYSGmGfI16oDE-45" value="&lt;pre&gt;id&lt;/pre&gt;" style="text;html=1;align=left;verticalAlign=middle;resizable=0;points=[];autosize=1;strokeColor=none;fillColor=none;" vertex="1" parent="KOg-pLwdYSGmGfI16oDE-47">
          <mxGeometry x="20" y="-20" width="40" height="50" as="geometry" />
        </mxCell>
        <mxCell id="KOg-pLwdYSGmGfI16oDE-61" value="" style="verticalLabelPosition=bottom;verticalAlign=top;html=1;shape=mxgraph.flowchart.on-page_reference;fillColor=#000000;strokeColor=#000000;" vertex="1" parent="KOg-pLwdYSGmGfI16oDE-65">
          <mxGeometry y="80" width="10" height="10" as="geometry" />
        </mxCell>
        <mxCell id="KOg-pLwdYSGmGfI16oDE-62" value="&lt;pre&gt;name_business&lt;/pre&gt;" style="text;html=1;align=left;verticalAlign=middle;resizable=0;points=[];autosize=1;strokeColor=none;fillColor=none;" vertex="1" parent="KOg-pLwdYSGmGfI16oDE-65">
          <mxGeometry x="20" y="60" width="110" height="50" as="geometry" />
        </mxCell>
        <mxCell id="KOg-pLwdYSGmGfI16oDE-63" value="" style="verticalLabelPosition=bottom;verticalAlign=top;html=1;shape=mxgraph.flowchart.on-page_reference;fillColor=#000000;strokeColor=#000000;" vertex="1" parent="KOg-pLwdYSGmGfI16oDE-65">
          <mxGeometry y="100" width="10" height="10" as="geometry" />
        </mxCell>
        <mxCell id="KOg-pLwdYSGmGfI16oDE-66" value="" style="endArrow=classic;html=1;rounded=0;entryX=0.737;entryY=0.068;entryDx=0;entryDy=0;exitX=0.145;exitY=0.855;exitDx=0;exitDy=0;exitPerimeter=0;entryPerimeter=0;" edge="1" parent="1" source="KOg-pLwdYSGmGfI16oDE-50" target="KOg-pLwdYSGmGfI16oDE-15">
          <mxGeometry width="50" height="50" relative="1" as="geometry">
            <mxPoint x="840" y="470" as="sourcePoint" />
            <mxPoint x="890" y="420" as="targetPoint" />
          </mxGeometry>
        </mxCell>
        <mxCell id="KOg-pLwdYSGmGfI16oDE-67" value="" style="endArrow=classic;html=1;rounded=0;entryX=1;entryY=0;entryDx=0;entryDy=0;exitX=0;exitY=0.5;exitDx=0;exitDy=0;exitPerimeter=0;" edge="1" parent="1" source="KOg-pLwdYSGmGfI16oDE-51" target="KOg-pLwdYSGmGfI16oDE-15">
          <mxGeometry width="50" height="50" relative="1" as="geometry">
            <mxPoint x="840" y="470" as="sourcePoint" />
            <mxPoint x="890" y="420" as="targetPoint" />
          </mxGeometry>
        </mxCell>
        <mxCell id="KOg-pLwdYSGmGfI16oDE-68" value="" style="endArrow=classic;html=1;rounded=0;entryX=0.953;entryY=0.308;entryDx=0;entryDy=0;exitX=0;exitY=0.5;exitDx=0;exitDy=0;exitPerimeter=0;entryPerimeter=0;" edge="1" parent="1" source="KOg-pLwdYSGmGfI16oDE-53" target="KOg-pLwdYSGmGfI16oDE-15">
          <mxGeometry width="50" height="50" relative="1" as="geometry">
            <mxPoint x="840" y="470" as="sourcePoint" />
            <mxPoint x="890" y="420" as="targetPoint" />
          </mxGeometry>
        </mxCell>
        <mxCell id="KOg-pLwdYSGmGfI16oDE-69" value="" style="endArrow=classic;html=1;rounded=0;entryX=1;entryY=0.5;entryDx=0;entryDy=0;exitX=-0.28;exitY=0.38;exitDx=0;exitDy=0;exitPerimeter=0;" edge="1" parent="1" source="KOg-pLwdYSGmGfI16oDE-52" target="KOg-pLwdYSGmGfI16oDE-15">
          <mxGeometry width="50" height="50" relative="1" as="geometry">
            <mxPoint x="840" y="470" as="sourcePoint" />
            <mxPoint x="890" y="420" as="targetPoint" />
          </mxGeometry>
        </mxCell>
        <mxCell id="KOg-pLwdYSGmGfI16oDE-71" value="" style="endArrow=classic;html=1;rounded=0;entryX=0.94;entryY=0.748;entryDx=0;entryDy=0;entryPerimeter=0;exitX=0;exitY=0.5;exitDx=0;exitDy=0;exitPerimeter=0;" edge="1" parent="1" source="KOg-pLwdYSGmGfI16oDE-61" target="KOg-pLwdYSGmGfI16oDE-15">
          <mxGeometry width="50" height="50" relative="1" as="geometry">
            <mxPoint x="840" y="470" as="sourcePoint" />
            <mxPoint x="890" y="420" as="targetPoint" />
          </mxGeometry>
        </mxCell>
        <mxCell id="KOg-pLwdYSGmGfI16oDE-72" value="" style="endArrow=classic;html=1;rounded=0;entryX=1;entryY=1;entryDx=0;entryDy=0;exitX=0;exitY=0.5;exitDx=0;exitDy=0;exitPerimeter=0;" edge="1" parent="1" source="KOg-pLwdYSGmGfI16oDE-63" target="KOg-pLwdYSGmGfI16oDE-15">
          <mxGeometry width="50" height="50" relative="1" as="geometry">
            <mxPoint x="840" y="470" as="sourcePoint" />
            <mxPoint x="890" y="420" as="targetPoint" />
          </mxGeometry>
        </mxCell>
        <mxCell id="KOg-pLwdYSGmGfI16oDE-74" value="" style="endArrow=classic;html=1;rounded=0;entryX=1;entryY=0;entryDx=0;entryDy=0;exitX=0;exitY=0.5;exitDx=0;exitDy=0;exitPerimeter=0;" edge="1" parent="1" source="KOg-pLwdYSGmGfI16oDE-21" target="KOg-pLwdYSGmGfI16oDE-14">
          <mxGeometry width="50" height="50" relative="1" as="geometry">
            <mxPoint x="840" y="350" as="sourcePoint" />
            <mxPoint x="840" y="310" as="targetPoint" />
          </mxGeometry>
        </mxCell>
        <mxCell id="KOg-pLwdYSGmGfI16oDE-75" value="" style="edgeStyle=orthogonalEdgeStyle;rounded=0;orthogonalLoop=1;jettySize=auto;html=1;" edge="1" parent="1" source="KOg-pLwdYSGmGfI16oDE-23" target="KOg-pLwdYSGmGfI16oDE-14">
          <mxGeometry relative="1" as="geometry" />
        </mxCell>
        <mxCell id="KOg-pLwdYSGmGfI16oDE-76" value="" style="endArrow=classic;html=1;rounded=0;entryX=0.957;entryY=0.708;entryDx=0;entryDy=0;entryPerimeter=0;exitX=0;exitY=0.5;exitDx=0;exitDy=0;exitPerimeter=0;" edge="1" parent="1" source="KOg-pLwdYSGmGfI16oDE-32" target="KOg-pLwdYSGmGfI16oDE-14">
          <mxGeometry width="50" height="50" relative="1" as="geometry">
            <mxPoint x="840" y="390" as="sourcePoint" />
            <mxPoint x="890" y="340" as="targetPoint" />
          </mxGeometry>
        </mxCell>
        <mxCell id="KOg-pLwdYSGmGfI16oDE-77" value="" style="endArrow=classic;html=1;rounded=0;entryX=1;entryY=1;entryDx=0;entryDy=0;exitX=0;exitY=0.5;exitDx=0;exitDy=0;exitPerimeter=0;" edge="1" parent="1" source="KOg-pLwdYSGmGfI16oDE-27" target="KOg-pLwdYSGmGfI16oDE-14">
          <mxGeometry width="50" height="50" relative="1" as="geometry">
            <mxPoint x="840" y="390" as="sourcePoint" />
            <mxPoint x="890" y="340" as="targetPoint" />
          </mxGeometry>
        </mxCell>
        <mxCell id="KOg-pLwdYSGmGfI16oDE-86" value="" style="endArrow=classic;html=1;rounded=0;entryX=0;entryY=0;entryDx=0;entryDy=0;exitX=1;exitY=0.5;exitDx=0;exitDy=0;exitPerimeter=0;" edge="1" parent="1" source="KOg-pLwdYSGmGfI16oDE-81" target="KOg-pLwdYSGmGfI16oDE-2">
          <mxGeometry width="50" height="50" relative="1" as="geometry">
            <mxPoint x="160" y="390" as="sourcePoint" />
            <mxPoint x="210" y="340" as="targetPoint" />
          </mxGeometry>
        </mxCell>
        <mxCell id="KOg-pLwdYSGmGfI16oDE-88" value="" style="group" vertex="1" connectable="0" parent="1">
          <mxGeometry x="10" y="310" width="90" height="90" as="geometry" />
        </mxCell>
        <mxCell id="KOg-pLwdYSGmGfI16oDE-79" value="&lt;pre&gt;password&lt;/pre&gt;" style="text;html=1;align=left;verticalAlign=middle;resizable=0;points=[];autosize=1;strokeColor=none;fillColor=none;" vertex="1" parent="KOg-pLwdYSGmGfI16oDE-88">
          <mxGeometry x="10" y="40" width="80" height="50" as="geometry" />
        </mxCell>
        <mxCell id="KOg-pLwdYSGmGfI16oDE-80" value="&lt;pre&gt;username&lt;/pre&gt;" style="text;html=1;align=center;verticalAlign=middle;resizable=0;points=[];autosize=1;strokeColor=none;fillColor=none;" vertex="1" parent="KOg-pLwdYSGmGfI16oDE-88">
          <mxGeometry y="20" width="80" height="50" as="geometry" />
        </mxCell>
        <mxCell id="KOg-pLwdYSGmGfI16oDE-81" value="" style="verticalLabelPosition=bottom;verticalAlign=top;html=1;shape=mxgraph.flowchart.on-page_reference;fillColor=#3277D2;strokeColor=#5995e3;" vertex="1" parent="KOg-pLwdYSGmGfI16oDE-88">
          <mxGeometry x="80" y="20" width="10" height="10" as="geometry" />
        </mxCell>
        <mxCell id="KOg-pLwdYSGmGfI16oDE-82" value="" style="verticalLabelPosition=bottom;verticalAlign=top;html=1;shape=mxgraph.flowchart.on-page_reference;fillColor=#000000;strokeColor=#000000;" vertex="1" parent="KOg-pLwdYSGmGfI16oDE-88">
          <mxGeometry x="80" y="40" width="10" height="10" as="geometry" />
        </mxCell>
        <mxCell id="KOg-pLwdYSGmGfI16oDE-84" value="" style="verticalLabelPosition=bottom;verticalAlign=top;html=1;shape=mxgraph.flowchart.on-page_reference;fillColor=#000000;strokeColor=#000000;" vertex="1" parent="KOg-pLwdYSGmGfI16oDE-88">
          <mxGeometry x="80" y="60" width="10" height="10" as="geometry" />
        </mxCell>
        <mxCell id="KOg-pLwdYSGmGfI16oDE-85" value="&lt;pre&gt;email&lt;/pre&gt;" style="text;html=1;align=center;verticalAlign=middle;resizable=0;points=[];autosize=1;strokeColor=none;fillColor=none;" vertex="1" parent="KOg-pLwdYSGmGfI16oDE-88">
          <mxGeometry x="20" width="60" height="50" as="geometry" />
        </mxCell>
        <mxCell id="KOg-pLwdYSGmGfI16oDE-89" value="" style="edgeStyle=orthogonalEdgeStyle;rounded=0;orthogonalLoop=1;jettySize=auto;html=1;" edge="1" parent="1" source="KOg-pLwdYSGmGfI16oDE-82" target="KOg-pLwdYSGmGfI16oDE-2">
          <mxGeometry relative="1" as="geometry" />
        </mxCell>
        <mxCell id="KOg-pLwdYSGmGfI16oDE-91" value="" style="endArrow=classic;html=1;rounded=0;entryX=0;entryY=1;entryDx=0;entryDy=0;exitX=1;exitY=0.5;exitDx=0;exitDy=0;exitPerimeter=0;" edge="1" parent="1" source="KOg-pLwdYSGmGfI16oDE-84" target="KOg-pLwdYSGmGfI16oDE-2">
          <mxGeometry width="50" height="50" relative="1" as="geometry">
            <mxPoint x="150" y="390" as="sourcePoint" />
            <mxPoint x="200" y="340" as="targetPoint" />
          </mxGeometry>
        </mxCell>
        <mxCell id="KOg-pLwdYSGmGfI16oDE-92" value="Emits" style="shape=rhombus;perimeter=rhombusPerimeter;whiteSpace=wrap;html=1;align=center;" vertex="1" parent="1">
          <mxGeometry x="90" y="480" width="120" height="60" as="geometry" />
        </mxCell>
        <mxCell id="KOg-pLwdYSGmGfI16oDE-93" value="Transfers" style="whiteSpace=wrap;html=1;align=center;" vertex="1" parent="1">
          <mxGeometry x="500" y="370" width="100" height="40" as="geometry" />
        </mxCell>
        <mxCell id="KOg-pLwdYSGmGfI16oDE-94" value="" style="endArrow=classic;html=1;rounded=0;entryX=0;entryY=0;entryDx=0;entryDy=0;exitX=1;exitY=1;exitDx=0;exitDy=0;" edge="1" parent="1" source="KOg-pLwdYSGmGfI16oDE-2" target="KOg-pLwdYSGmGfI16oDE-92">
          <mxGeometry width="50" height="50" relative="1" as="geometry">
            <mxPoint x="440" y="470" as="sourcePoint" />
            <mxPoint x="490" y="420" as="targetPoint" />
          </mxGeometry>
        </mxCell>
        <mxCell id="KOg-pLwdYSGmGfI16oDE-95" value="" style="endArrow=classic;html=1;rounded=0;entryX=0;entryY=0.5;entryDx=0;entryDy=0;exitX=1;exitY=1;exitDx=0;exitDy=0;" edge="1" parent="1" source="KOg-pLwdYSGmGfI16oDE-92" target="KOg-pLwdYSGmGfI16oDE-93">
          <mxGeometry width="50" height="50" relative="1" as="geometry">
            <mxPoint x="440" y="510" as="sourcePoint" />
            <mxPoint x="490" y="460" as="targetPoint" />
          </mxGeometry>
        </mxCell>
        <mxCell id="KOg-pLwdYSGmGfI16oDE-99" value="" style="endArrow=classic;html=1;rounded=0;entryX=0.129;entryY=0.426;entryDx=0;entryDy=0;exitX=1;exitY=1;exitDx=0;exitDy=0;entryPerimeter=0;" edge="1" parent="1" source="KOg-pLwdYSGmGfI16oDE-3" target="KOg-pLwdYSGmGfI16oDE-96">
          <mxGeometry width="50" height="50" relative="1" as="geometry">
            <mxPoint x="580" y="505" as="sourcePoint" />
            <mxPoint x="630" y="320" as="targetPoint" />
          </mxGeometry>
        </mxCell>
        <mxCell id="KOg-pLwdYSGmGfI16oDE-100" value="" style="endArrow=classic;html=1;rounded=0;entryX=0;entryY=1;entryDx=0;entryDy=0;exitX=1;exitY=0.5;exitDx=0;exitDy=0;" edge="1" parent="1" source="KOg-pLwdYSGmGfI16oDE-93" target="KOg-pLwdYSGmGfI16oDE-15">
          <mxGeometry width="50" height="50" relative="1" as="geometry">
            <mxPoint x="700" y="460" as="sourcePoint" />
            <mxPoint x="650" y="510" as="targetPoint" />
          </mxGeometry>
        </mxCell>
        <mxCell id="KOg-pLwdYSGmGfI16oDE-169" value="(1,n)" style="edgeLabel;html=1;align=center;verticalAlign=middle;resizable=0;points=[];" vertex="1" connectable="0" parent="KOg-pLwdYSGmGfI16oDE-100">
          <mxGeometry x="-0.2368" y="-1" relative="1" as="geometry">
            <mxPoint as="offset" />
          </mxGeometry>
        </mxCell>
        <mxCell id="KOg-pLwdYSGmGfI16oDE-102" value="" style="endArrow=classic;html=1;rounded=0;exitX=1;exitY=0.25;exitDx=0;exitDy=0;" edge="1" parent="1" source="KOg-pLwdYSGmGfI16oDE-93" target="KOg-pLwdYSGmGfI16oDE-96">
          <mxGeometry width="50" height="50" relative="1" as="geometry">
            <mxPoint x="700" y="340" as="sourcePoint" />
            <mxPoint x="650" y="390" as="targetPoint" />
          </mxGeometry>
        </mxCell>
        <mxCell id="KOg-pLwdYSGmGfI16oDE-103" value="" style="endArrow=classic;html=1;rounded=0;entryX=0.5;entryY=0;entryDx=0;entryDy=0;exitX=0.5;exitY=1;exitDx=0;exitDy=0;" edge="1" parent="1" source="KOg-pLwdYSGmGfI16oDE-96" target="KOg-pLwdYSGmGfI16oDE-14">
          <mxGeometry width="50" height="50" relative="1" as="geometry">
            <mxPoint x="660" y="390" as="sourcePoint" />
            <mxPoint x="610" y="440" as="targetPoint" />
          </mxGeometry>
        </mxCell>
        <mxCell id="KOg-pLwdYSGmGfI16oDE-165" value="(1,1)" style="edgeLabel;html=1;align=center;verticalAlign=middle;resizable=0;points=[];" vertex="1" connectable="0" parent="KOg-pLwdYSGmGfI16oDE-103">
          <mxGeometry x="-0.24" y="-2" relative="1" as="geometry">
            <mxPoint as="offset" />
          </mxGeometry>
        </mxCell>
        <mxCell id="KOg-pLwdYSGmGfI16oDE-106" value="" style="endArrow=classic;html=1;rounded=0;entryX=0;entryY=0.5;entryDx=0;entryDy=0;exitX=0.5;exitY=1;exitDx=0;exitDy=0;" edge="1" parent="1" source="KOg-pLwdYSGmGfI16oDE-92" target="KOg-pLwdYSGmGfI16oDE-14">
          <mxGeometry width="50" height="50" relative="1" as="geometry">
            <mxPoint x="560" y="470" as="sourcePoint" />
            <mxPoint x="610" y="420" as="targetPoint" />
            <Array as="points">
              <mxPoint x="480" y="700" />
            </Array>
          </mxGeometry>
        </mxCell>
        <mxCell id="KOg-pLwdYSGmGfI16oDE-171" value="(1,n)" style="edgeLabel;html=1;align=center;verticalAlign=middle;resizable=0;points=[];" vertex="1" connectable="0" parent="KOg-pLwdYSGmGfI16oDE-106">
          <mxGeometry x="0.1549" y="3" relative="1" as="geometry">
            <mxPoint as="offset" />
          </mxGeometry>
        </mxCell>
        <mxCell id="KOg-pLwdYSGmGfI16oDE-108" value="" style="endArrow=classic;html=1;rounded=0;entryX=0;entryY=0;entryDx=0;entryDy=0;" edge="1" parent="1" source="KOg-pLwdYSGmGfI16oDE-92" target="KOg-pLwdYSGmGfI16oDE-93">
          <mxGeometry width="50" height="50" relative="1" as="geometry">
            <mxPoint x="560" y="410" as="sourcePoint" />
            <mxPoint x="610" y="360" as="targetPoint" />
            <Array as="points">
              <mxPoint x="410" y="390" />
            </Array>
          </mxGeometry>
        </mxCell>
        <mxCell id="KOg-pLwdYSGmGfI16oDE-163" value="(1,n)" style="edgeLabel;html=1;align=center;verticalAlign=middle;resizable=0;points=[];" vertex="1" connectable="0" parent="KOg-pLwdYSGmGfI16oDE-108">
          <mxGeometry x="-0.1434" y="-2" relative="1" as="geometry">
            <mxPoint as="offset" />
          </mxGeometry>
        </mxCell>
        <mxCell id="KOg-pLwdYSGmGfI16oDE-123" value="" style="endArrow=classic;html=1;rounded=0;entryX=0.461;entryY=-0.02;entryDx=0;entryDy=0;entryPerimeter=0;exitX=0.5;exitY=1;exitDx=0;exitDy=0;" edge="1" parent="1" source="KOg-pLwdYSGmGfI16oDE-16" target="KOg-pLwdYSGmGfI16oDE-15">
          <mxGeometry width="50" height="50" relative="1" as="geometry">
            <mxPoint x="960" y="410" as="sourcePoint" />
            <mxPoint x="1010" y="360" as="targetPoint" />
          </mxGeometry>
        </mxCell>
        <mxCell id="KOg-pLwdYSGmGfI16oDE-173" value="(1,n)" style="edgeLabel;html=1;align=center;verticalAlign=middle;resizable=0;points=[];" vertex="1" connectable="0" parent="KOg-pLwdYSGmGfI16oDE-123">
          <mxGeometry x="-0.1725" y="-1" relative="1" as="geometry">
            <mxPoint as="offset" />
          </mxGeometry>
        </mxCell>
        <mxCell id="KOg-pLwdYSGmGfI16oDE-124" value="" style="endArrow=classic;html=1;rounded=0;entryX=0.423;entryY=1.02;entryDx=0;entryDy=0;entryPerimeter=0;exitX=0.687;exitY=0.043;exitDx=0;exitDy=0;exitPerimeter=0;" edge="1" parent="1" source="KOg-pLwdYSGmGfI16oDE-14" target="KOg-pLwdYSGmGfI16oDE-16">
          <mxGeometry width="50" height="50" relative="1" as="geometry">
            <mxPoint x="1010" y="360" as="sourcePoint" />
            <mxPoint x="960" y="410" as="targetPoint" />
            <Array as="points">
              <mxPoint x="870" y="370" />
            </Array>
          </mxGeometry>
        </mxCell>
        <mxCell id="KOg-pLwdYSGmGfI16oDE-170" value="(1,1)" style="edgeLabel;html=1;align=center;verticalAlign=middle;resizable=0;points=[];" vertex="1" connectable="0" parent="KOg-pLwdYSGmGfI16oDE-124">
          <mxGeometry x="-0.372" y="-3" relative="1" as="geometry">
            <mxPoint as="offset" />
          </mxGeometry>
        </mxCell>
        <mxCell id="KOg-pLwdYSGmGfI16oDE-126" value="State" style="ellipse;whiteSpace=wrap;html=1;align=center;" vertex="1" parent="1">
          <mxGeometry x="370" y="480" width="60" height="20" as="geometry" />
        </mxCell>
        <mxCell id="KOg-pLwdYSGmGfI16oDE-133" value="" style="verticalLabelPosition=bottom;verticalAlign=top;html=1;shape=mxgraph.flowchart.on-page_reference;fillColor=#3277D2;strokeColor=#5995e3;" vertex="1" parent="1">
          <mxGeometry x="349" y="490" width="10" height="10" as="geometry" />
        </mxCell>
        <mxCell id="KOg-pLwdYSGmGfI16oDE-139" value="" style="endArrow=classic;html=1;rounded=0;entryX=-0.019;entryY=0.882;entryDx=0;entryDy=0;entryPerimeter=0;exitX=0.5;exitY=0;exitDx=0;exitDy=0;" edge="1" parent="1" source="KOg-pLwdYSGmGfI16oDE-126" target="KOg-pLwdYSGmGfI16oDE-93">
          <mxGeometry width="50" height="50" relative="1" as="geometry">
            <mxPoint x="640" y="590" as="sourcePoint" />
            <mxPoint x="690" y="540" as="targetPoint" />
          </mxGeometry>
        </mxCell>
        <mxCell id="KOg-pLwdYSGmGfI16oDE-164" value="(1,1)" style="edgeLabel;html=1;align=center;verticalAlign=middle;resizable=0;points=[];" vertex="1" connectable="0" parent="KOg-pLwdYSGmGfI16oDE-139">
          <mxGeometry x="-0.099" y="-2" relative="1" as="geometry">
            <mxPoint as="offset" />
          </mxGeometry>
        </mxCell>
        <mxCell id="KOg-pLwdYSGmGfI16oDE-140" value="" style="endArrow=classic;html=1;rounded=0;entryX=0;entryY=0.5;entryDx=0;entryDy=0;exitX=1;exitY=0.5;exitDx=0;exitDy=0;exitPerimeter=0;" edge="1" parent="1" source="KOg-pLwdYSGmGfI16oDE-133" target="KOg-pLwdYSGmGfI16oDE-126">
          <mxGeometry width="50" height="50" relative="1" as="geometry">
            <mxPoint x="640" y="590" as="sourcePoint" />
            <mxPoint x="690" y="540" as="targetPoint" />
          </mxGeometry>
        </mxCell>
        <mxCell id="KOg-pLwdYSGmGfI16oDE-141" value="" style="endArrow=classic;html=1;rounded=0;exitX=0.837;exitY=0.334;exitDx=0;exitDy=0;exitPerimeter=0;entryX=0.907;entryY=1.068;entryDx=0;entryDy=0;entryPerimeter=0;" edge="1" parent="1" source="KOg-pLwdYSGmGfI16oDE-134" target="KOg-pLwdYSGmGfI16oDE-93">
          <mxGeometry width="50" height="50" relative="1" as="geometry">
            <mxPoint x="480" y="580" as="sourcePoint" />
            <mxPoint x="500" y="370" as="targetPoint" />
          </mxGeometry>
        </mxCell>
        <mxCell id="KOg-pLwdYSGmGfI16oDE-136" value="" style="verticalLabelPosition=bottom;verticalAlign=top;html=1;shape=mxgraph.flowchart.on-page_reference;fillColor=#000000;strokeColor=#000000;" vertex="1" parent="1">
          <mxGeometry x="509" y="470" width="10" height="10" as="geometry" />
        </mxCell>
        <mxCell id="KOg-pLwdYSGmGfI16oDE-143" value="" style="endArrow=classic;html=1;rounded=0;entryX=0.25;entryY=1;entryDx=0;entryDy=0;exitX=0.5;exitY=0;exitDx=0;exitDy=0;exitPerimeter=0;" edge="1" parent="1" source="KOg-pLwdYSGmGfI16oDE-136" target="KOg-pLwdYSGmGfI16oDE-93">
          <mxGeometry width="50" height="50" relative="1" as="geometry">
            <mxPoint x="480" y="620" as="sourcePoint" />
            <mxPoint x="530" y="570" as="targetPoint" />
          </mxGeometry>
        </mxCell>
        <mxCell id="KOg-pLwdYSGmGfI16oDE-134" value="" style="verticalLabelPosition=bottom;verticalAlign=top;html=1;shape=mxgraph.flowchart.on-page_reference;fillColor=#000000;strokeColor=#000000;" vertex="1" parent="1">
          <mxGeometry x="610" y="450" width="10" height="10" as="geometry" />
        </mxCell>
        <mxCell id="KOg-pLwdYSGmGfI16oDE-146" value="" style="endArrow=classic;html=1;rounded=0;entryX=0.75;entryY=1;entryDx=0;entryDy=0;exitX=0.5;exitY=0;exitDx=0;exitDy=0;exitPerimeter=0;" edge="1" parent="1" source="KOg-pLwdYSGmGfI16oDE-147" target="KOg-pLwdYSGmGfI16oDE-93">
          <mxGeometry width="50" height="50" relative="1" as="geometry">
            <mxPoint x="590" y="450" as="sourcePoint" />
            <mxPoint x="515" y="540" as="targetPoint" />
          </mxGeometry>
        </mxCell>
        <mxCell id="KOg-pLwdYSGmGfI16oDE-148" value="&lt;pre&gt;end_date_transfer&lt;/pre&gt;" style="text;html=1;align=left;verticalAlign=middle;resizable=0;points=[];autosize=1;strokeColor=none;fillColor=none;" vertex="1" parent="1">
          <mxGeometry x="589" y="460" width="140" height="50" as="geometry" />
        </mxCell>
        <mxCell id="KOg-pLwdYSGmGfI16oDE-147" value="" style="verticalLabelPosition=bottom;verticalAlign=top;html=1;shape=mxgraph.flowchart.on-page_reference;fillColor=#000000;strokeColor=#000000;" vertex="1" parent="1">
          <mxGeometry x="570" y="470" width="10" height="10" as="geometry" />
        </mxCell>
        <mxCell id="KOg-pLwdYSGmGfI16oDE-153" value="" style="endArrow=classic;html=1;rounded=0;entryX=0;entryY=0.5;entryDx=0;entryDy=0;exitX=0.5;exitY=0;exitDx=0;exitDy=0;" edge="1" parent="1" source="KOg-pLwdYSGmGfI16oDE-93" target="KOg-pLwdYSGmGfI16oDE-16">
          <mxGeometry width="50" height="50" relative="1" as="geometry">
            <mxPoint x="530" y="440" as="sourcePoint" />
            <mxPoint x="580" y="390" as="targetPoint" />
          </mxGeometry>
        </mxCell>
        <mxCell id="KOg-pLwdYSGmGfI16oDE-158" value="" style="edgeStyle=orthogonalEdgeStyle;rounded=0;orthogonalLoop=1;jettySize=auto;html=1;entryX=0;entryY=0;entryDx=0;entryDy=0;" edge="1" parent="1" source="KOg-pLwdYSGmGfI16oDE-156" target="KOg-pLwdYSGmGfI16oDE-16">
          <mxGeometry relative="1" as="geometry" />
        </mxCell>
        <mxCell id="KOg-pLwdYSGmGfI16oDE-172" value="(1,n)" style="edgeLabel;html=1;align=center;verticalAlign=middle;resizable=0;points=[];" vertex="1" connectable="0" parent="KOg-pLwdYSGmGfI16oDE-158">
          <mxGeometry x="-0.035" y="1" relative="1" as="geometry">
            <mxPoint as="offset" />
          </mxGeometry>
        </mxCell>
        <mxCell id="KOg-pLwdYSGmGfI16oDE-156" value="Has" style="shape=rhombus;perimeter=rhombusPerimeter;whiteSpace=wrap;html=1;align=center;" vertex="1" parent="1">
          <mxGeometry x="620" y="80" width="120" height="60" as="geometry" />
        </mxCell>
        <mxCell id="KOg-pLwdYSGmGfI16oDE-157" value="" style="endArrow=classic;html=1;rounded=0;entryX=0;entryY=1;entryDx=0;entryDy=0;" edge="1" parent="1" source="KOg-pLwdYSGmGfI16oDE-3" target="KOg-pLwdYSGmGfI16oDE-156">
          <mxGeometry width="50" height="50" relative="1" as="geometry">
            <mxPoint x="840" y="240" as="sourcePoint" />
            <mxPoint x="890" y="190" as="targetPoint" />
          </mxGeometry>
        </mxCell>
        <mxCell id="KOg-pLwdYSGmGfI16oDE-162" value="(1,n)" style="edgeLabel;html=1;align=center;verticalAlign=middle;resizable=0;points=[];" vertex="1" connectable="0" parent="KOg-pLwdYSGmGfI16oDE-157">
          <mxGeometry x="-0.0067" y="-1" relative="1" as="geometry">
            <mxPoint as="offset" />
          </mxGeometry>
        </mxCell>
        <mxCell id="KOg-pLwdYSGmGfI16oDE-160" value="" style="group" vertex="1" connectable="0" parent="1">
          <mxGeometry x="1026" y="60" width="130" height="110" as="geometry" />
        </mxCell>
        <mxCell id="KOg-pLwdYSGmGfI16oDE-119" value="&lt;pre&gt;id&lt;/pre&gt;" style="text;html=1;align=left;verticalAlign=middle;resizable=0;points=[];autosize=1;strokeColor=none;fillColor=none;" vertex="1" parent="KOg-pLwdYSGmGfI16oDE-160">
          <mxGeometry x="20" width="40" height="50" as="geometry" />
        </mxCell>
        <mxCell id="KOg-pLwdYSGmGfI16oDE-155" value="&lt;pre&gt;type_transfer&lt;/pre&gt;" style="text;html=1;align=left;verticalAlign=middle;resizable=0;points=[];autosize=1;strokeColor=none;fillColor=none;" vertex="1" parent="KOg-pLwdYSGmGfI16oDE-160">
          <mxGeometry x="20" y="60" width="110" height="50" as="geometry" />
        </mxCell>
        <mxCell id="KOg-pLwdYSGmGfI16oDE-159" value="" style="group" vertex="1" connectable="0" parent="KOg-pLwdYSGmGfI16oDE-160">
          <mxGeometry y="20" width="127" height="70" as="geometry" />
        </mxCell>
        <mxCell id="KOg-pLwdYSGmGfI16oDE-113" value="&lt;pre&gt;balance&lt;/pre&gt;" style="text;html=1;align=left;verticalAlign=middle;resizable=0;points=[];autosize=1;strokeColor=none;fillColor=none;" vertex="1" parent="KOg-pLwdYSGmGfI16oDE-159">
          <mxGeometry x="20" y="20" width="70" height="50" as="geometry" />
        </mxCell>
        <mxCell id="KOg-pLwdYSGmGfI16oDE-114" value="&lt;pre&gt;&lt;pre style=&quot;text-align: left;&quot;&gt;account_number&lt;/pre&gt;&lt;/pre&gt;" style="text;html=1;align=center;verticalAlign=middle;resizable=0;points=[];autosize=1;strokeColor=none;fillColor=none;" vertex="1" parent="KOg-pLwdYSGmGfI16oDE-159">
          <mxGeometry x="7" width="120" height="50" as="geometry" />
        </mxCell>
        <mxCell id="KOg-pLwdYSGmGfI16oDE-115" value="" style="verticalLabelPosition=bottom;verticalAlign=top;html=1;shape=mxgraph.flowchart.on-page_reference;fillColor=#3277D2;strokeColor=#5995e3;" vertex="1" parent="KOg-pLwdYSGmGfI16oDE-159">
          <mxGeometry width="10" height="10" as="geometry" />
        </mxCell>
        <mxCell id="KOg-pLwdYSGmGfI16oDE-116" value="" style="verticalLabelPosition=bottom;verticalAlign=top;html=1;shape=mxgraph.flowchart.on-page_reference;fillColor=#000000;strokeColor=#000000;" vertex="1" parent="KOg-pLwdYSGmGfI16oDE-159">
          <mxGeometry y="20" width="10" height="10" as="geometry" />
        </mxCell>
        <mxCell id="KOg-pLwdYSGmGfI16oDE-118" value="" style="verticalLabelPosition=bottom;verticalAlign=top;html=1;shape=mxgraph.flowchart.on-page_reference;fillColor=#000000;strokeColor=#000000;" vertex="1" parent="KOg-pLwdYSGmGfI16oDE-159">
          <mxGeometry y="40" width="10" height="10" as="geometry" />
        </mxCell>
        <mxCell id="KOg-pLwdYSGmGfI16oDE-154" value="" style="verticalLabelPosition=bottom;verticalAlign=top;html=1;shape=mxgraph.flowchart.on-page_reference;fillColor=#000000;strokeColor=#000000;" vertex="1" parent="KOg-pLwdYSGmGfI16oDE-159">
          <mxGeometry y="60" width="10" height="10" as="geometry" />
        </mxCell>
        <mxCell id="KOg-pLwdYSGmGfI16oDE-175" value="" style="endArrow=classic;html=1;rounded=0;entryX=1;entryY=1;entryDx=0;entryDy=0;exitX=0.613;exitY=-0.026;exitDx=0;exitDy=0;exitPerimeter=0;" edge="1" parent="1" source="KOg-pLwdYSGmGfI16oDE-15" target="KOg-pLwdYSGmGfI16oDE-16">
          <mxGeometry width="50" height="50" relative="1" as="geometry">
            <mxPoint x="820" y="290" as="sourcePoint" />
            <mxPoint x="870" y="240" as="targetPoint" />
          </mxGeometry>
        </mxCell>
        <mxCell id="KOg-pLwdYSGmGfI16oDE-176" value="(1,1)" style="edgeLabel;html=1;align=center;verticalAlign=middle;resizable=0;points=[];" vertex="1" connectable="0" parent="KOg-pLwdYSGmGfI16oDE-175">
          <mxGeometry x="0.01" y="-1" relative="1" as="geometry">
            <mxPoint as="offset" />
          </mxGeometry>
        </mxCell>
        <mxCell id="KOg-pLwdYSGmGfI16oDE-177" value="" style="edgeStyle=orthogonalEdgeStyle;rounded=0;orthogonalLoop=1;jettySize=auto;html=1;entryX=1;entryY=0;entryDx=0;entryDy=0;" edge="1" parent="1" source="KOg-pLwdYSGmGfI16oDE-116" target="KOg-pLwdYSGmGfI16oDE-16">
          <mxGeometry relative="1" as="geometry">
            <Array as="points">
              <mxPoint x="983" y="107" />
            </Array>
          </mxGeometry>
        </mxCell>
        <mxCell id="KOg-pLwdYSGmGfI16oDE-179" value="" style="edgeStyle=orthogonalEdgeStyle;rounded=0;orthogonalLoop=1;jettySize=auto;html=1;" edge="1" parent="1" source="KOg-pLwdYSGmGfI16oDE-118" target="KOg-pLwdYSGmGfI16oDE-16">
          <mxGeometry relative="1" as="geometry" />
        </mxCell>
        <mxCell id="KOg-pLwdYSGmGfI16oDE-181" value="" style="endArrow=classic;html=1;rounded=0;entryX=0.975;entryY=0.7;entryDx=0;entryDy=0;entryPerimeter=0;exitX=0;exitY=0.5;exitDx=0;exitDy=0;exitPerimeter=0;" edge="1" parent="1" source="KOg-pLwdYSGmGfI16oDE-154" target="KOg-pLwdYSGmGfI16oDE-16">
          <mxGeometry width="50" height="50" relative="1" as="geometry">
            <mxPoint x="740" y="240" as="sourcePoint" />
            <mxPoint x="790" y="190" as="targetPoint" />
          </mxGeometry>
        </mxCell>
        <mxCell id="KOg-pLwdYSGmGfI16oDE-182" value="" style="endArrow=classic;html=1;rounded=0;entryX=0.5;entryY=0;entryDx=0;entryDy=0;exitX=0;exitY=0.5;exitDx=0;exitDy=0;exitPerimeter=0;" edge="1" parent="1" source="KOg-pLwdYSGmGfI16oDE-115" target="KOg-pLwdYSGmGfI16oDE-16">
          <mxGeometry width="50" height="50" relative="1" as="geometry">
            <mxPoint x="740" y="240" as="sourcePoint" />
            <mxPoint x="790" y="190" as="targetPoint" />
          </mxGeometry>
        </mxCell>
      </root>
    </mxGraphModel>
  </diagram>
</mxfile>
